<svg xmlns="http://www.w3.org/2000/svg" xml:space="preserve" viewBox="0 0 32 32" id="youtube">
  <g id="OUTLINE_copy">
    <path fill="#414752" d="M24.514 12.295s-.169-1.278-.69-1.841c-.661-.738-1.401-.742-1.741-.784-2.432-.188-6.079-.188-6.079-.188h-.008s-3.647 0-6.079.188c-.339.042-1.079.046-1.741.784-.52.563-.69 1.841-.69 1.841s-.174 1.5-.174 2.999V16.7c0 1.501.174 3 .174 3s.169 1.278.69 1.839c.662.738 1.529.715 1.916.792 1.39.143 5.908.187 5.908.187s3.651-.006 6.083-.193c.339-.044 1.08-.048 1.741-.785.52-.562.69-1.839.69-1.839s.174-1.5.174-3v-1.406c0-1.5-.174-3-.174-3zM13.83 19.259v-6.518L19.262 16l-5.432 3.259z"></path>
    <path id="Shopping_10_111_" fill="#414752" d="M16 1c8.271 0 15 6.729 15 15s-6.729 15-15 15S1 24.271 1 16 7.729 1 16 1m0-1C7.164 0 0 7.164 0 16s7.164 16 16 16 16-7.163 16-16S24.836 0 16 0z"></path>
  </g>
</svg>
